<?xml version="1.0" standalone="no"?>
<!DOCTYPE svg PUBLIC "-//W3C//DTD SVG 20010904//EN"
 "http://www.w3.org/TR/2001/REC-SVG-20010904/DTD/svg10.dtd">
<svg version="1.0" xmlns="http://www.w3.org/2000/svg"
 width="48.000000pt" height="33.000000pt" viewBox="0 0 48.000000 33.000000"
 preserveAspectRatio="xMidYMid meet">
<metadata>
Created by potrace 1.13, written by Peter Selinger 2001-2015
</metadata>
<g transform="translate(0.000000,33.000000) scale(0.100000,-0.100000)"
fill="#000000" stroke="none">
<path d="M210 299 l0 -31 -102 3 c-83 2 -103 0 -103 -11 0 -11 20 -13 103 -11
l102 3 0 -31 c0 -17 5 -31 10 -31 6 0 10 30 10 70 0 40 -4 70 -10 70 -5 0 -10
-14 -10 -31z m-180 -39 c0 -5 -4 -10 -10 -10 -5 0 -10 5 -10 10 0 6 5 10 10
10 6 0 10 -4 10 -10z"/>
<path d="M250 260 c0 -40 4 -70 10 -70 6 0 10 14 10 31 l0 31 103 -3 c82 -2
102 0 102 11 0 11 -20 13 -102 11 l-103 -3 0 31 c0 17 -4 31 -10 31 -6 0 -10
-30 -10 -70z m220 0 c0 -5 -4 -10 -10 -10 -5 0 -10 5 -10 10 0 6 5 10 10 10 6
0 10 -4 10 -10z"/>
<path d="M10 75 c-22 -27 17 -72 41 -48 6 6 2 9 -13 9 -17 -1 -23 5 -23 19 0
14 6 20 22 19 12 0 20 3 17 8 -8 13 -30 9 -44 -7z"/>
<path d="M338 78 c-8 -24 4 -58 21 -57 10 0 11 2 4 6 -15 5 -17 30 -4 35 5 2
3 8 -4 15 -10 10 -14 10 -17 1z"/>
<path d="M94 62 c19 -8 19 -9 -2 -14 -26 -7 -30 -28 -4 -28 14 0 15 2 2 10
-13 8 -13 10 2 10 9 0 19 -6 22 -12 3 -7 4 -2 3 12 -1 16 -9 26 -22 27 -19 3
-19 3 -1 -5z"/>
<path d="M130 33 c0 -21 4 -33 8 -27 4 6 15 13 25 17 25 9 17 41 -11 45 -19 3
-22 -1 -22 -35z m40 12 c0 -8 -7 -15 -15 -15 -8 0 -15 7 -15 15 0 8 7 15 15
15 8 0 15 -7 15 -15z"/>
<path d="M214 62 c19 -8 19 -9 -2 -14 -26 -7 -30 -28 -4 -28 14 0 15 2 2 10
-13 8 -13 10 2 10 9 0 19 -6 22 -12 3 -7 4 -2 3 12 -1 16 -9 26 -22 27 -19 3
-19 3 -1 -5z"/>
<path d="M254 55 c-8 -19 4 -35 24 -34 15 1 15 2 0 6 -23 6 -23 30 0 36 16 4
16 5 -1 6 -10 0 -20 -6 -23 -14z"/>
<path d="M312 45 c0 -17 2 -22 5 -12 2 9 2 23 0 30 -3 6 -5 -1 -5 -18z"/>
<path d="M384 55 c-4 -9 -2 -21 4 -27 15 -15 44 -1 40 19 -4 23 -36 29 -44 8z
m36 -10 c0 -8 -7 -15 -15 -15 -8 0 -15 7 -15 15 0 8 7 15 15 15 8 0 15 -7 15
-15z"/>
<path d="M441 43 c1 -22 2 -23 6 -8 3 11 10 23 17 27 7 5 5 8 -6 8 -13 0 -18
-7 -17 -27z"/>
</g>
</svg>
